<?xml version="1.0" encoding="utf-8"?>
<!-- Generator: Adobe Illustrator 16.0.4, SVG Export Plug-In . SVG Version: 6.00 Build 0)  -->
<!DOCTYPE svg PUBLIC "-//W3C//DTD SVG 1.1//EN" "http://www.w3.org/Graphics/SVG/1.1/DTD/svg11.dtd">
<svg version="1.1" id="Layer_1" xmlns="http://www.w3.org/2000/svg" xmlns:xlink="http://www.w3.org/1999/xlink" x="0px" y="0px"
	 width="50px" height="50px" viewBox="0 0 50 50" enable-background="new 0 0 50 50" xml:space="preserve">
<path d="M30.584,25.819c-0.277,0-0.5,0.225-0.5,0.5v0.834H19.916v-3.75c0-0.275-0.223-0.5-0.5-0.5c-0.275,0-0.5,0.225-0.5,0.5v7.25
	c0,0.277,0.225,0.5,0.5,0.5c0.277,0,0.5-0.223,0.5-0.5v-1h10.168v1c0,0.277,0.223,0.5,0.5,0.5c0.275,0,0.5-0.223,0.5-0.5v-4.334
	C31.084,26.044,30.859,25.819,30.584,25.819z M19.916,28.653v-0.5h10.168v0.5H19.916z M20.688,26.092c0-0.276,0.224-0.5,0.5-0.5
	H23.5c0.275,0,0.5,0.224,0.5,0.5s-0.225,0.5-0.5,0.5h-2.312C20.91,26.592,20.688,26.368,20.688,26.092z M27.213,22.526h-2.508
	v-0.002c0-0.336,0.084-0.623,0.254-0.864c0.172-0.24,0.49-0.525,0.959-0.854c0.211-0.146,0.357-0.281,0.443-0.402
	s0.131-0.256,0.131-0.405c0-0.165-0.049-0.295-0.143-0.394c-0.095-0.102-0.22-0.15-0.373-0.15c-0.166,0-0.293,0.062-0.386,0.188
	c-0.096,0.123-0.137,0.293-0.131,0.506h-0.709c-0.012-0.397,0.095-0.715,0.313-0.947c0.224-0.234,0.527-0.352,0.916-0.352
	c0.361,0,0.656,0.107,0.888,0.322c0.229,0.217,0.344,0.494,0.344,0.833c0,0.28-0.065,0.513-0.196,0.694
	c-0.13,0.183-0.373,0.389-0.732,0.617c-0.33,0.211-0.557,0.399-0.678,0.57l-0.002,0.006h1.608L27.213,22.526L27.213,22.526z
	 M29.039,22.526h0.711v-0.811h0.414V21.14H29.75v-2.293h-0.404h-0.402l-1.358,2.243v0.312v0.313h1.455L29.039,22.526L29.039,22.526z
	 M28.115,21.142l0.031-0.051l0.893-1.482v1.533H28.115L28.115,21.142z M26.074,25.015v-0.856h-0.742v0.856h-0.195h-0.199v-1.894
	h0.197h0.197v0.711h0.742v-0.711h0.197h0.198v1.894h-0.198H26.074z M28.416,23.647c0-0.16-0.057-0.285-0.166-0.383
	c-0.111-0.097-0.256-0.145-0.438-0.145h-0.758h-0.197v1.895h0.199h0.196v-0.748h0.396c0.113,0,0.192,0.018,0.24,0.053
	c0.049,0.037,0.073,0.099,0.075,0.184l0.004,0.175c0,0.075,0.005,0.144,0.013,0.208c0.008,0.066,0.018,0.109,0.026,0.127h0.438
	v-0.05c-0.033-0.014-0.055-0.034-0.064-0.062c-0.012-0.025-0.018-0.068-0.02-0.131l-0.012-0.312
	c-0.002-0.151-0.06-0.259-0.166-0.325c-0.021-0.012-0.041-0.021-0.064-0.031c0.041-0.015,0.078-0.035,0.111-0.057
	C28.354,23.964,28.416,23.83,28.416,23.647z M27.941,23.886c-0.051,0.041-0.127,0.062-0.229,0.062h-0.459v-0.5h0.476
	c0.098,0,0.17,0.021,0.217,0.062c0.051,0.044,0.074,0.104,0.074,0.188C28.02,23.78,27.994,23.843,27.941,23.886z M29.154,23.462
	c-0.057,0.044-0.084,0.104-0.084,0.186c0,0.057,0.029,0.101,0.09,0.131c0.057,0.031,0.182,0.068,0.371,0.111
	c0.275,0.061,0.461,0.131,0.553,0.213c0.094,0.08,0.139,0.207,0.139,0.385c0,0.179-0.068,0.318-0.209,0.424s-0.33,0.156-0.568,0.156
	c-0.239,0-0.428-0.055-0.562-0.166c-0.135-0.11-0.207-0.27-0.217-0.474h0.383c0.002,0.103,0.039,0.179,0.109,0.231
	c0.067,0.055,0.163,0.082,0.286,0.082c0.125,0,0.226-0.021,0.296-0.062c0.069-0.042,0.106-0.097,0.106-0.17
	c0-0.07-0.025-0.124-0.076-0.156c-0.051-0.035-0.155-0.068-0.319-0.104c-0.302-0.066-0.502-0.141-0.604-0.219
	c-0.102-0.077-0.15-0.198-0.15-0.361c0-0.186,0.066-0.331,0.199-0.439c0.136-0.105,0.314-0.16,0.541-0.16
	c0.211,0,0.385,0.056,0.519,0.168c0.133,0.111,0.207,0.263,0.223,0.451h-0.387c-0.006-0.09-0.047-0.16-0.119-0.213
	c-0.071-0.054-0.166-0.08-0.28-0.08C29.291,23.396,29.211,23.417,29.154,23.462z"/>
</svg>
